# xmcd
#
# Track frame offsets:
# 180
# 13873
# 25369
# 40886
# 52344
# 63478
# 76506
# 88610
# 99390
# 113986
# 127407
# 139140
#
# Disc length: 2041 seconds
#
# Revision: 0
# Processed by: cddbd v1.5.1PL2 Copyright (c) Steve Scherf et al.
# Submitted via: Audion 3.0.2 (http://www.panic.com/audion/)
#
DISCID=a707f70c
DTITLE=Miguel Matamoros Y Su Cuarteto Maisi - Cubanisimo
DYEAR=1900
DGENRE=
TTITLE0=Comentario En El Solar
TTITLE1=Baila Mi Pregon
TTITLE2=Tu No Yo Si
TTITLE3=Por El Batey
TTITLE4=Hoy La Rumba
TTITLE5=Realidades
TTITLE6=Mi Veneracion
TTITLE7=Mama Son De La Loma
TTITLE8=Olvido
TTITLE9=Oye Ya
TTITLE10=Dulce Embeleso
TTITLE11=Canto A La Sombra
EXTD=
EXTT0=
EXTT1=
EXTT2=
EXTT3=
EXTT4=
EXTT5=
EXTT6=
EXTT7=
EXTT8=
EXTT9=
EXTT10=
EXTT11=
PLAYORDER=
